<svg width="159" height="48" viewBox="0 0 159 48" fill="none" xmlns="http://www.w3.org/2000/svg">
<g clip-path="url(#clip0_17_249)">
<path d="M0 39.2953V3.48187H8.21175L24.1376 26.3627V3.48187H32.3493V39.5441H24.1376L8.21175 16.4145V39.2953H0Z" fill="#00FF47"/>
<path d="M129.148 39.2953V3.48187H143.83C153.037 3.48187 158.263 7.70985 158.263 15.171C158.263 19.8964 156.272 23.1295 152.042 25.1192L158.76 39.2953H149.802L144.079 26.6114H137.609V39.2953H129.148ZM137.36 19.8964H143.581C147.314 19.8964 149.305 18.1554 149.305 15.171C149.305 12.1865 147.314 10.4456 143.581 10.4456H137.36V19.8964Z" fill="#00FF47"/>
<path d="M53.3816 0L55.3723 1.98964C47.9071 8.70466 44.1745 20.3938 44.1745 29.5959C44.1745 35.8135 45.4187 41.5337 48.156 46.2591L45.9164 48C40.9396 43.5233 37.9535 36.0622 37.9535 28.601C37.9535 17.658 43.6768 6.46632 53.3816 0Z" fill="#00FF47"/>
<path d="M69.3075 40.5389H62.8376L59.6027 8.20725C59.3538 6.96372 59.105 6.71502 57.1143 5.96891C56.6166 5.7202 56.6166 5.4715 56.6166 4.97409L56.8654 3.48186H70.5517C71.0493 3.48186 71.2982 3.48186 71.0493 3.97927L70.8005 5.96891L67.0679 6.71502L69.3075 33.0777L82.496 3.23315H86.9752L91.7031 33.0777L101.159 8.20725C101.657 6.71502 100.91 6.46632 98.6707 5.7202C97.9242 5.4715 97.9242 5.22279 98.173 4.72538L98.4218 3.23315H109.869C110.366 3.23315 110.615 3.23315 110.615 3.48186L110.117 5.4715L106.882 6.71502L91.952 40.5389H85.4821L81.5007 15.4197L69.3075 40.5389Z" fill="#00FF47"/>
<path d="M106.385 48L104.394 46.0104C111.859 39.2953 115.592 27.6062 115.592 18.4041C115.592 12.1865 114.348 6.46632 111.61 1.74093L113.85 0C118.827 4.47668 121.564 11.9378 121.564 19.399C121.564 30.342 116.089 41.7824 106.385 48Z" fill="#00FF47"/>
</g>
<defs>
<clipPath id="clip0_17_249">
<rect width="158.512" height="48" fill="white"/>
</clipPath>
</defs>
</svg>
