<svg width="163" height="20" viewBox="0 0 163 20" fill="none" xmlns="http://www.w3.org/2000/svg">
<g clip-path="url(#clip0_27_105)">
<path d="M0.200012 16.4767V1.55444H3.62083L10.2551 11.0881V1.55444H13.676V16.5803H10.2551L3.62083 6.94304V16.4767H0.200012Z" fill="black"/>
<path d="M19.6883 16.4767H16.2675V1.55444H19.6883V16.4767Z" fill="black"/>
<path d="M25.1824 9.1193C25.1824 12.1245 26.9446 13.6789 29.4325 13.6789C32.024 13.6789 33.1643 12.3317 33.3716 10.7773H29.2252V7.87578H36.5851V16.4768H33.5789L33.3716 15.1297C32.5423 16.0623 30.7801 16.6841 28.9142 16.6841C24.5604 16.6841 21.4506 13.5753 21.4506 9.01567C21.4506 4.45609 24.6641 1.24365 29.5361 1.24365C33.2679 1.24365 36.1705 3.31619 36.5851 6.63225H32.957C32.5423 5.07785 31.0911 4.35246 29.4325 4.35246C26.6336 4.35246 25.1824 6.21775 25.1824 9.1193Z" fill="black"/>
<path d="M38.762 16.4767V1.55444H42.1828V7.46118H48.2988V1.55444H51.7196V16.5803H48.2988V10.4664H42.1828V16.4767H38.762Z" fill="black"/>
<path d="M53.1709 1.55444H65.5066V4.55963H61.0492V16.4767H57.6283V4.55963H53.1709V1.55444Z" fill="black"/>
<path d="M137.758 16.4767V1.55444H147.71V4.55963H141.179V7.46118H146.984V10.3627H141.179V13.4715H147.71V16.4767H137.758Z" fill="black"/>
<path d="M149.99 16.4767V1.55444H156.106C159.942 1.55444 162.119 3.3161 162.119 6.42491C162.119 8.39382 161.29 9.74097 159.527 10.57L162.326 16.4767H158.594L156.21 11.1918H153.515V16.4767H149.99ZM153.411 8.39382H156.003C157.558 8.39382 158.387 7.66843 158.387 6.42491C158.387 5.18139 157.558 4.456 156.003 4.456H153.411V8.39382Z" fill="black"/>
<path d="M72.3482 0.103516L73.1775 0.932531C70.0677 3.73046 68.5127 8.60092 68.5127 12.4351C68.5127 15.0258 69.031 17.4092 70.1713 19.3781L69.2384 20.1035C67.1651 18.2382 65.9212 15.1294 65.9212 12.0206C65.9212 7.46103 68.2017 2.79782 72.3482 0.103516Z" fill="black"/>
<path d="M78.8789 16.9947H76.1837L74.9397 3.52322C74.8361 3.00509 74.7324 2.90146 73.9031 2.59058C73.6958 2.48695 73.6958 2.38333 73.6958 2.17607L73.7995 1.45068H79.5008C79.7081 1.45068 79.8118 1.45068 79.7081 1.65794L79.6045 2.48695L77.9459 2.90146L78.9825 13.8859L84.4766 1.45068H86.3425L88.312 13.8859L92.2512 3.52322C92.4585 2.90146 92.1475 2.79783 91.2145 2.48695C90.9036 2.38333 90.9036 2.2797 91.0072 2.07245L91.1109 1.45068H95.8793C96.0866 1.45068 96.1903 1.45068 96.1903 1.55431L95.983 2.38333L94.5317 3.00509L88.4157 17.0984H85.7205L84.0619 6.5284L78.8789 16.9947Z" fill="black"/>
<path d="M98.7818 17.3058C95.8793 17.3058 93.9097 15.7514 93.9097 12.7462C93.9097 8.70473 96.7086 5.38867 100.751 5.38867C103.654 5.38867 105.623 6.94308 105.623 9.94826C105.623 13.8861 102.825 17.3058 98.7818 17.3058ZM100.544 6.6322C98.2635 6.6322 96.9159 10.4664 96.9159 13.1607C96.9159 15.1296 97.6415 16.0622 98.8855 16.0622C101.166 16.0622 102.514 12.1244 102.514 9.53375C102.617 7.56484 101.788 6.6322 100.544 6.6322Z" fill="black"/>
<path d="M111.429 9.63724L110.081 16.9948H106.971L108.733 7.66833C108.837 7.25382 108.63 7.1502 107.697 6.83932C107.593 6.83932 107.489 6.73569 107.489 6.52844L107.593 5.90667L112.154 5.28491L111.739 7.35745L111.636 7.77196L111.532 8.39372C112.672 6.42481 113.813 5.38854 115.16 5.28491C115.471 5.28491 115.782 5.28491 115.99 5.28491C115.99 6.11393 115.782 7.1502 115.264 8.18647C115.057 8.08284 114.538 8.08284 114.227 8.08284C113.398 8.18647 112.154 8.60097 111.429 9.63724Z" fill="black"/>
<path d="M119.41 16.9948H116.404L119.099 2.38342C119.203 1.96891 118.996 1.86529 118.063 1.5544C117.855 1.5544 117.855 1.45078 117.855 1.24352L117.959 0.621762L122.52 0L122.002 2.27979L119.41 16.9948ZM125.319 17.3057C123.971 17.3057 123.349 16.4767 122.624 14.9223L120.862 11.7098L120.965 11.0881L122.624 9.94819C124.386 8.70466 124.904 7.66839 124.904 6.94301C124.904 6.73575 124.801 6.42487 124.697 6.21762C125.526 5.90674 126.978 5.49223 127.807 5.3886C127.911 5.59585 127.911 5.90674 127.911 6.11399C127.911 7.56477 126.874 8.60104 124.386 9.94819L123.246 10.5699L125.63 14.715C126.045 15.3368 126.252 15.6477 126.667 15.6477C126.978 15.6477 127.185 15.544 127.496 15.3368L128.014 16.1658C127.392 16.6839 126.356 17.3057 125.319 17.3057Z" fill="black"/>
<path d="M128.636 20.1035L127.807 19.2745C130.917 16.4766 132.472 11.6061 132.472 7.77191C132.472 5.18124 131.953 2.79782 130.813 0.828904L131.746 0.103516C133.819 1.9688 134.96 5.07761 134.96 8.18642C135.063 12.746 132.783 17.5128 128.636 20.1035Z" fill="black"/>
</g>
<defs>
<clipPath id="clip0_27_105">
<rect width="162.4" height="20" fill="white"/>
</clipPath>
</defs>
</svg>
