<svg width="812" height="100" viewBox="0 0 812 100" fill="none" xmlns="http://www.w3.org/2000/svg">
<g clip-path="url(#clip0_11_718)">
<path d="M1 82.3835V7.77209H18.1041L51.2757 55.4405V7.77209H68.3798V82.9016H51.2757L18.1041 34.7151V82.3835H1Z" fill="#00FF47"/>
<path d="M98.4416 82.3835H81.3375V7.77209H98.4416V82.3835Z" fill="#00FF47"/>
<path d="M125.912 45.5959C125.912 60.6218 134.723 68.3938 147.162 68.3938C160.12 68.3938 165.821 61.6581 166.858 53.886H146.126V39.3783H182.925V82.3835H167.895L166.858 75.6477C162.711 80.3109 153.9 83.4197 144.571 83.4197C122.802 83.4197 107.253 67.8757 107.253 45.0778C107.253 22.2798 123.32 6.21765 147.681 6.21765C166.34 6.21765 180.852 16.5803 182.925 33.1607H164.785C162.711 25.3886 155.455 21.7617 147.162 21.7617C133.168 21.7617 125.912 31.0881 125.912 45.5959Z" fill="#00FF47"/>
<path d="M193.81 82.3835V7.77209H210.914V37.3058H241.494V7.77209H258.598V82.9016H241.494V52.3317H210.914V82.3835H193.81Z" fill="#00FF47"/>
<path d="M265.854 7.77209H327.533V22.798H305.246V82.3835H288.142V22.798H265.854V7.77209Z" fill="#00FF47"/>
<path d="M688.792 82.3835V7.77209H738.55V22.798H705.896V37.3058H734.921V51.8135H705.896V67.3576H738.55V82.3835H688.792Z" fill="#00FF47"/>
<path d="M749.952 82.3835V7.77209H780.532C799.71 7.77209 810.594 16.5804 810.594 32.1244C810.594 41.969 806.448 48.7047 797.636 52.8498L811.631 82.3835H792.972L781.051 55.9586H767.575V82.3835H749.952ZM767.056 41.969H780.014C787.789 41.969 791.935 38.342 791.935 32.1244C791.935 25.9068 787.789 22.2799 780.014 22.2799H767.056V41.969Z" fill="#00FF47"/>
<path d="M361.741 0.518188L365.888 4.66327C350.338 18.6529 342.564 43.0052 342.564 62.1762C342.564 75.1296 345.155 87.0467 350.857 96.8913L346.192 100.518C335.826 91.1918 329.606 75.6477 329.606 60.1037C329.606 37.3058 341.009 13.9897 361.741 0.518188Z" fill="#00FF47"/>
<path d="M394.394 84.9741H380.918L374.699 17.6166C374.18 15.0259 373.662 14.5078 369.516 12.9534C368.479 12.4353 368.479 11.9171 368.479 10.8808L368.997 7.25391H397.504C398.541 7.25391 399.059 7.25391 398.541 8.29018L398.022 12.4353L389.73 14.5078L394.913 69.4301L422.383 7.25391H431.712L441.56 69.4301L461.256 17.6166C462.292 14.5078 460.737 13.9897 456.073 12.4353C454.518 11.9171 454.518 11.399 455.036 10.3627L455.554 7.25391H479.397C480.433 7.25391 480.951 7.25391 480.951 7.77204L479.915 11.9171L472.659 15.0259L442.078 85.4922H428.603L420.31 32.6425L394.394 84.9741Z" fill="#00FF47"/>
<path d="M493.909 86.5286C479.396 86.5286 469.549 78.7566 469.549 63.7307C469.549 43.5234 483.543 26.9431 503.757 26.9431C518.269 26.9431 528.117 34.7151 528.117 49.741C528.117 69.4302 514.123 86.5286 493.909 86.5286ZM502.72 33.1607C491.318 33.1607 484.58 52.3317 484.58 65.8032C484.58 75.6478 488.208 80.311 494.427 80.311C505.83 80.311 512.568 60.6219 512.568 47.6685C513.086 37.8239 508.94 33.1607 502.72 33.1607Z" fill="#00FF47"/>
<path d="M557.142 48.1866L550.404 84.9741H534.855L543.666 38.342C544.185 36.2695 543.148 35.7514 538.483 34.1969C537.965 34.1969 537.447 33.6788 537.447 32.6425L537.965 29.5337L560.771 26.4249L558.697 36.7876L558.179 38.8602L557.661 41.969C563.362 32.1244 569.063 26.9431 575.801 26.4249C577.356 26.4249 578.911 26.4249 579.948 26.4249C579.948 30.57 578.911 35.7514 576.32 40.9327C575.283 40.4146 572.692 40.4146 571.137 40.4146C566.99 40.9327 560.771 43.0052 557.142 48.1866Z" fill="#00FF47"/>
<path d="M597.052 84.9741H582.021L595.497 11.9171C596.015 9.84456 594.979 9.32643 590.314 7.77202C589.277 7.77202 589.277 7.25389 589.277 6.21762L589.796 3.10881L612.601 0L610.01 11.399L597.052 84.9741ZM626.595 86.5285C619.857 86.5285 616.748 82.3834 613.119 74.6114L604.308 58.5492L604.827 55.4404L613.119 49.7409C621.931 43.5233 624.522 38.342 624.522 34.715C624.522 33.6788 624.004 32.1244 623.486 31.0881C627.632 29.5337 634.888 27.4611 639.035 26.943C639.553 27.9793 639.553 29.5337 639.553 30.57C639.553 37.8238 634.37 43.0052 621.931 49.7409L616.229 52.8497L628.15 73.5751C630.224 76.6839 631.26 78.2383 633.333 78.2383C634.888 78.2383 635.925 77.7202 637.48 76.6839L640.071 80.829C636.962 83.4197 631.778 86.5285 626.595 86.5285Z" fill="#00FF47"/>
<path d="M643.181 100.518L639.035 96.3731C654.584 82.3835 662.359 58.0311 662.359 38.8602C662.359 25.9068 659.767 13.9897 654.066 4.14513L658.73 0.518188C669.097 9.84461 674.798 25.3887 674.798 40.9327C675.316 63.7306 663.913 87.5648 643.181 100.518Z" fill="#00FF47"/>
</g>
<defs>
<clipPath id="clip0_11_718">
<rect width="812" height="100" fill="white"/>
</clipPath>
</defs>
</svg>
