<svg width="52" height="52" viewBox="0 0 52 52" fill="none" xmlns="http://www.w3.org/2000/svg">
<path d="M23.351 13.1179C23.8993 12.8438 24.4477 12.8438 25.2701 12.8438C28.0117 12.5696 30.7533 12.5696 33.495 13.6662C33.7691 13.6662 34.0433 13.9404 34.3174 14.2146C38.1557 16.1337 38.9782 19.9719 38.9782 19.9719L51.8637 20.2461L49.1221 11.1988L43.0906 5.98975L28.0117 0.780701L14.0296 3.24814L4.43395 13.3921L0.595703 26.8259L4.15979 39.7115L13.4812 48.4846C13.4812 48.4846 26.0926 51.5004 26.0926 51.7745L40.349 47.388L41.1714 50.9521L50.4929 51.2262V37.244L50.7671 22.9877L38.4298 22.7135H25.8185V32.5833H38.9782L32.3983 38.0665C29.1084 40.8081 24.7218 41.0823 20.8836 39.1632L17.3195 37.244L12.3846 27.3743L14.3037 20.5202C14.852 18.6011 15.9487 16.682 17.5936 15.5854C19.7869 14.2146 21.4319 13.3921 23.351 13.1179Z" fill="white"/>
</svg>
