<svg width="56" height="52" viewBox="0 0 56 52" fill="none" xmlns="http://www.w3.org/2000/svg">
<path d="M54.462 13.4887L54.7361 1.42564L43.4956 0.877319L39.109 13.7629L33.8999 26.1001L28.1426 37.889L22.9335 25.8259L18.8211 12.9404L12.7896 0.877319H1.54902V13.4887L2.09734 25.8259L0.178223 38.1631V38.4373L1.82318 50.5003L13.0638 51.0487L13.6121 36.7923L13.0638 25.2776L17.9986 36.7923L21.8369 51.597L22.1111 51.8711L33.6258 51.3228L39.6573 37.3406L43.4956 25.5518L43.2214 40.3564L42.9472 51.597L54.7361 51.0487H55.2845L55.5586 38.1631L55.0103 25.8259L54.462 13.4887Z" fill="white"/>
</svg>
