<svg width="75" height="55" viewBox="0 0 75 55" fill="none" xmlns="http://www.w3.org/2000/svg">
<path d="M19.1131 54.0219L8.42088 53.4736L7.05008 38.1207L5.67928 23.316L5.95344 8.23716L1.2927 4.94725L0.744385 3.8506V0.28653L19.6615 1.38315L21.3064 2.20564L20.2098 4.94725L13.9041 5.76974L15.5491 18.107L17.194 30.17L18.2907 43.6039L24.048 28.525L30.3537 15.0912L37.2077 2.20564L41.3201 1.93149L45.1584 14.817L45.9809 28.7992L48.1741 43.6039L53.3832 31.2666L56.1248 19.2036L61.3338 8.23716L58.3181 3.57645L57.4956 1.38315H73.1227H73.3969L74.4935 5.2214L69.2845 6.04389L64.0754 17.5586L59.1406 29.3475L53.3832 40.5881L48.4483 51.8287L39.9493 52.9253L37.4819 41.4106L38.0302 29.6217L34.7403 19.2036L29.8054 30.17L24.048 41.6847L19.1131 54.0219Z" fill="#65FF1D"/>
</svg>
