<svg width="40" height="59" viewBox="0 0 40 59" fill="none" xmlns="http://www.w3.org/2000/svg">
<path d="M11.6292 57.7478L0.388672 57.1995L2.8561 44.5881L5.04939 32.525L8.61348 20.7361L10.2584 8.39891L6.69437 5.65731L5.04939 4.56066L6.42019 2.64153L21.7732 0.174103L20.1282 8.39891L16.8383 20.1878L15.1933 32.2509L13.2742 44.3139L11.6292 57.7478ZM30.5463 58.8444L20.9507 50.0713L15.4675 39.379L16.0158 36.9116L22.3215 34.17L29.7238 23.4777L28.9013 21.0103L39.3194 17.172L39.8678 20.462L28.353 33.6217L24.7889 34.9925L31.6429 48.9746L35.4812 51.7162L38.4969 50.3454L39.0453 53.087L30.5463 58.8444Z" fill="#65FF1D"/>
</svg>
