<svg width="75" height="52" viewBox="0 0 75 52" fill="none" xmlns="http://www.w3.org/2000/svg">
<path d="M74.1014 0.383134L62.0384 0.657312L59.5709 11.8979L56.281 22.5901L52.7169 31.3633L51.3461 21.7677L46.6854 11.6237L43.3954 1.75394V1.47978L31.3324 0.931468H31.0582L26.9458 11.0754L25.3009 22.316L22.2851 33.0082L19.5435 22.0418L16.5278 11.3496L12.1412 1.75394V1.47978L0.078125 0.108978L5.28716 12.9945L6.93214 26.1542L11.5929 38.2173L15.7053 51.377H28.5908L29.9616 39.0398L35.4448 29.17L37.3639 19.3002L41.2022 28.3475L43.9438 39.3139L46.4112 50.5545V50.8287L58.2001 50.5545L62.5867 37.9431L67.5216 25.8801L69.4407 12.9945L73.8273 0.931468L74.1014 0.383134Z" fill="white"/>
</svg>
