<svg width="21" height="55" viewBox="0 0 21 55" fill="none" xmlns="http://www.w3.org/2000/svg">
<path d="M1.26051 54.0219C1.26051 52.377 1.26051 50.4579 1.26051 48.5387C1.53467 48.5387 1.53462 48.5387 1.80878 48.5387C3.17958 48.5387 4.55045 48.5387 5.64709 48.5387C7.29205 48.5387 8.38869 47.4421 8.38869 45.523C8.38869 44.4263 8.38869 43.6038 8.38869 42.5072C8.38869 31.2666 8.38869 20.0261 8.38869 9.05964C8.38869 8.78548 8.38869 8.23715 8.38869 7.96299C8.11453 6.86635 7.292 5.76972 6.19536 5.76972C4.82456 5.76972 3.17958 5.76972 1.80878 5.76972C1.53462 5.76972 1.26049 5.76972 0.986328 5.76972C0.986328 3.8506 0.986328 2.20563 0.986328 0.560669H1.26051C3.17963 0.560669 5.09877 0.560669 7.01789 0.560669C8.66285 0.560669 10.0336 1.38314 10.8561 2.75394C11.6786 1.38314 13.0494 0.560669 14.6943 0.560669C16.6135 0.560669 18.5326 0.560669 20.4517 0.560669H20.7259C20.7259 1.10899 20.7259 1.38315 20.7259 1.93147C20.7259 3.02811 20.7259 4.12474 20.7259 5.49554C20.7259 6.04386 20.4517 6.04388 20.1776 6.04388C18.8068 6.04388 17.436 6.04388 16.3393 6.04388C14.4202 6.04388 13.5977 7.14051 13.5977 9.05964C13.5977 9.60796 13.5977 10.4304 13.5977 10.9788C13.5977 22.4935 13.5977 34.0082 13.5977 45.523C13.5977 46.0713 13.5977 46.6196 13.5977 46.8938C13.8719 47.9904 14.6943 48.8129 16.0652 48.8129C17.436 48.8129 18.8068 48.8129 20.1776 48.8129C20.4517 48.8129 20.7259 48.8129 20.7259 48.8129C20.7259 50.732 20.7259 52.377 20.7259 54.2961C18.5326 54.2961 16.6135 54.2961 14.4202 54.2961H14.146C12.7752 54.0219 11.6786 53.4736 10.8561 52.1028C10.3078 52.6511 9.75946 53.1995 9.21114 53.4736C8.66282 53.7478 7.84037 54.0219 7.01789 54.2961C5.37293 54.0219 3.45379 54.0219 1.26051 54.0219Z" fill="#65FF1D"/>
</svg>
