<svg width="190" height="14" viewBox="0 0 190 14" fill="none" xmlns="http://www.w3.org/2000/svg">
<path fill-rule="evenodd" clip-rule="evenodd" d="M171.993 0.150574L181.413 2.88543L189.299 3.13979L188.984 12.8987L179.871 12.6047L172.293 10.4047L164.485 13.1754H154.251L145.908 11.0222L129.983 12.0496L120.977 13.7383L111.405 13.4296L102.906 11.2363L95.6464 11.0021L86.7733 13.2919L76.9934 11.4582L69.2552 10.2101L61.0693 11.2664L52.5704 10.9922L44.3062 12.0585L34.9655 12.6612L26.6574 10.8438L18.6849 12.9012H9.17497L0.289795 11.4681L1.84453 1.82874L9.95733 3.13725H17.4454L26.4708 0.808104L35.7089 2.82896L43.3662 2.33494L52.1 1.208L60.5989 1.48216L69.411 0.345123L78.6707 1.83863L86.4372 3.29483L94.562 1.1981L104.3 1.51223L112.799 3.70551L120.226 3.94508L128.765 2.34392L146.837 1.17802L155.491 3.41141H162.804L171.993 0.150574Z" fill="#65FF1D"/>
</svg>
